<svg width="85" height="87" viewBox="0 0 85 87" fill="none" xmlns="http://www.w3.org/2000/svg">
<path d="M34.0585 85.0557L34.051 86.5268C34.051 86.7807 33.8494 86.9823 33.5955 86.9823H31.1238C30.8699 86.9823 30.6683 86.7807 30.6683 86.5268L30.6758 85.0557C30.6907 75.4005 30.7056 64.9089 27.308 57.6059C24.7243 55.851 13.9415 49.4217 1.26198 54.4248C1.00809 54.5144 0.716863 54.38 0.634722 54.1111C0.410703 53.3121 0.209085 52.5057 0.0298693 51.6843C-0.022402 51.4602 0.104543 51.2213 0.321095 51.1392C9.11013 47.7938 17.018 49.2649 22.4617 51.3408C21.2445 50.4223 19.8481 49.6756 18.2427 49.1454C6.68325 45.3594 1.9415 38.9301 0.0298693 33.7776C0 33.6955 -0.00746732 33.5984 0.00746732 33.5088C0.350964 31.8884 0.791536 30.3053 1.31425 28.7671C1.47853 28.2966 2.16552 28.3788 2.21779 28.8641C2.64343 32.665 4.9359 39.7963 15.5619 44.5007C14.6808 38.3252 15.5992 33.016 16.4206 28.2518C17.5781 21.5536 18.5264 16.1323 14.636 10.0465C14.509 9.84486 14.5463 9.5835 14.7256 9.42669C15.3677 8.90398 16.0174 8.3962 16.6895 7.91082C16.906 7.75401 17.2196 7.81375 17.3615 8.03777C22.0958 15.3109 20.9533 21.8896 19.7511 28.8268C18.8401 34.0614 17.9066 39.4677 19.2358 45.9195C19.2508 45.927 19.2732 45.9344 19.2956 45.9344C34.1033 50.8106 34.0809 69.001 34.0585 85.0557Z" fill="#482817"/>
<path d="M83.5891 51.7811C83.4099 52.5876 83.2082 53.3941 82.9842 54.1931C82.9096 54.4544 82.6183 54.5963 82.3644 54.4992C68.8411 49.4364 57.0129 55.8433 54.1529 57.6056C52.9955 62.9896 53.0029 68.7095 53.0104 72.727V86.5266C53.0104 86.7805 52.8088 86.9821 52.5549 86.9821H50.0832C49.8293 86.9821 49.6277 86.7805 49.6277 86.5266V72.7344C49.6128 66.0362 49.5978 54.9921 54.5711 47.353C51.7634 44.1047 49.1274 38.9896 49.2693 33.2622C49.3813 28.4308 51.5095 24.0027 55.3999 20.4632C61.4037 15.0046 62.3371 10.1135 62.0011 5.61067C61.9787 5.2373 62.3744 4.99088 62.6955 5.1701C63.5543 5.65547 64.3981 6.16325 65.2195 6.70837C65.3539 6.79797 65.436 6.93985 65.436 7.10413C65.436 11.7563 63.9426 17.2746 57.6775 22.9647C54.4292 25.9068 52.7416 29.4016 52.6445 33.3368C52.54 37.8322 54.5039 41.8869 56.6993 44.6349C57.9687 43.3057 59.4547 42.1408 61.217 41.2223C65.4883 38.9896 69.5431 38.0637 73.1124 37.2572C78.4516 36.0325 81.3115 35.241 82.4391 32.1122C82.5959 31.6716 83.2232 31.694 83.3352 32.1421C83.6264 33.3144 83.8728 34.5017 84.067 35.704C84.0894 35.8459 84.0521 35.9877 83.955 36.0923C81.5953 38.788 77.8019 39.6467 73.8666 40.5428C70.4914 41.3119 66.6681 42.1856 62.7777 44.2093C59.2083 46.0761 56.9382 49.2796 55.5045 52.9983C60.9482 50.3399 71.4024 46.8602 83.2904 51.2285C83.5144 51.3181 83.6414 51.5571 83.5891 51.7811Z" fill="#482817"/>
<path d="M52.8164 1.16011C53.1599 1.24972 53.2793 1.67536 53.0255 1.92924C51.8307 3.13895 49.8369 6.36483 49.1873 14.5938C48.5525 22.7108 44.7591 29.0356 41.705 34.1209C39.5021 37.7873 37.583 40.9833 37.3963 43.8284C40.4729 48.8763 43.5196 55.3803 43.5196 65.9018V86.5266C43.5196 86.7804 43.3179 86.9821 43.064 86.9821H40.5924C40.3385 86.9821 40.1369 86.7804 40.1369 86.5266V65.8943C40.1369 54.1856 36.1717 48.0698 32.6695 42.671C28.57 36.3461 24.687 30.3723 29.3764 17.9616C32.9085 8.62743 33.8195 3.34804 34.0286 0.786744C34.0435 0.577659 34.2003 0.40591 34.4094 0.368574C35.2383 0.219227 36.0821 0.09975 36.9259 0.00267481C37.2097 -0.0271945 37.4561 0.196825 37.4412 0.488051C37.2918 3.34804 36.3659 9.03067 32.5351 19.1638C28.667 29.4015 31.1238 34.0313 34.8649 39.8558C35.7461 37.4662 37.2097 35.0319 38.8002 32.381C41.817 27.3555 45.237 21.6579 45.812 14.3325C46.3795 7.02196 48.0074 2.9672 49.6054 0.719538C49.71 0.570191 49.8966 0.502985 50.0684 0.540322C51.0093 0.712071 51.9203 0.921156 52.8164 1.16011Z" fill="#482817"/>
<path d="M58.7379 39.7662C62.4044 38.9672 64.7267 35.3456 63.9277 31.6791L63.7709 30.9548C63.7186 30.7233 63.4872 30.574 63.2557 30.6188L62.5313 30.7756C58.8649 31.5746 56.5425 35.1962 57.3415 38.8627L57.4984 39.5945C57.5506 39.826 57.7821 39.9753 58.0136 39.9305L58.7379 39.7662Z" fill="#482817"/>
<path d="M57.1698 58.3227L56.5276 58.6886C56.3185 58.8081 56.2513 59.0769 56.3708 59.286L56.7367 59.9282C58.611 63.1764 62.7703 64.2891 66.0186 62.4148L66.6608 62.0489C66.8699 61.9294 66.9371 61.6606 66.8176 61.4515L66.4517 60.8093C64.5774 57.561 60.4256 56.4484 57.1698 58.3227Z" fill="#482817"/>
<path d="M45.4461 45.3968L44.7517 45.1429C44.5276 45.0608 44.2737 45.1803 44.1916 45.4043L43.9377 46.0987C42.6608 49.6308 44.4828 53.5213 48.0149 54.7982L48.7093 55.0521C48.9334 55.1342 49.1872 55.0147 49.2694 54.7907L49.5233 54.0963C50.8002 50.5717 48.9707 46.6737 45.4461 45.3968Z" fill="#482817"/>
<path d="M48.0671 37.7876L48.1716 37.0558C48.209 36.8168 48.0372 36.6003 47.7983 36.5629L47.0665 36.4584C43.3477 35.9282 39.9128 38.5119 39.3826 42.2306L39.2781 42.9624C39.2407 43.2014 39.4125 43.4179 39.6514 43.4553L40.3832 43.5598C44.1019 44.0825 47.5369 41.4988 48.0671 37.7876Z" fill="#482817"/>
<path d="M42.3023 18.7834L42.4069 18.0516C42.4442 17.8126 42.2799 17.5886 42.041 17.5587L41.3092 17.4542C37.5979 16.9016 34.1405 19.4704 33.5954 23.1816L33.4909 23.9134C33.4536 24.1524 33.6178 24.3764 33.8568 24.4063L34.5886 24.5108C38.2998 25.0634 41.7497 22.4946 42.3023 18.7834Z" fill="#482817"/>
<path d="M25.5232 34.5542L24.8287 34.8081C21.3116 36.1074 19.512 40.0128 20.8113 43.5373L21.0652 44.2318C21.1474 44.4558 21.4012 44.5753 21.6253 44.4932L22.3197 44.2393C25.8368 42.94 27.6365 39.0346 26.3371 35.51L26.0833 34.8155C26.0011 34.584 25.7547 34.472 25.5232 34.5542Z" fill="#482817"/>
<path d="M15.5918 26.6685C16.122 22.9498 13.5383 19.5148 9.81955 18.9846L9.08775 18.8801C8.8488 18.8428 8.63225 19.0145 8.59491 19.2535L8.49037 19.9853C7.96019 23.704 10.5439 27.139 14.2551 27.6691L14.9869 27.7737C15.2259 27.811 15.4424 27.6393 15.4798 27.4003L15.5918 26.6685Z" fill="#482817"/>
<path d="M10.7006 38.6909C13.3515 36.04 13.3515 31.7314 10.7006 29.0805L10.1779 28.5578C10.0061 28.386 9.72986 28.386 9.56558 28.5578L9.04286 29.0805C6.39196 31.7314 6.39196 36.04 9.04286 38.6909L9.56558 39.2136C9.73732 39.3854 10.0136 39.3854 10.1779 39.2136L10.7006 38.6909Z" fill="#482817"/>
<path d="M24.2015 6.85786L23.5071 6.61144C23.2831 6.52929 23.0292 6.64877 22.947 6.87279L22.7006 7.56725C21.4386 11.0993 23.2756 14.9898 26.8151 16.2517L27.5096 16.4982C27.7336 16.5803 27.9875 16.4608 28.0696 16.2368L28.316 15.5424C29.578 12.0103 27.7411 8.11983 24.2015 6.85786Z" fill="#482817"/>
<path d="M43.9228 9.77748L44.6396 9.95669C44.8711 10.0164 45.1101 9.87455 45.1698 9.64307L45.349 8.9262C46.2675 5.28962 44.0646 1.59329 40.428 0.674813L39.7112 0.495598C39.4797 0.435859 39.2407 0.577738 39.181 0.809225L39.0018 1.52609C38.0758 5.16267 40.2862 8.859 43.9228 9.77748Z" fill="#482817"/>
<path d="M81.7074 42.9922C78.6607 40.7968 74.4118 41.4913 72.2239 44.538L71.7908 45.1353C71.6489 45.3295 71.6937 45.6058 71.8879 45.7402L72.4853 46.1733C75.5319 48.3687 79.7808 47.6742 81.9688 44.6276L82.4019 44.0302C82.5438 43.836 82.499 43.5597 82.3048 43.4253L81.7074 42.9922Z" fill="#482817"/>
<path d="M15.4351 60.8167L15.0692 61.4589C14.9497 61.668 15.0169 61.9368 15.226 62.0563L15.8682 62.4222C19.1165 64.2965 23.2758 63.1839 25.15 59.9356L25.5159 59.2934C25.6354 59.0843 25.5682 58.8155 25.3591 58.696L24.7169 58.3227C21.4687 56.4484 17.3168 57.561 15.4351 60.8167Z" fill="#482817"/>
<path d="M71.5967 54.5292L70.8724 54.6636C70.6334 54.7084 70.4766 54.9324 70.5214 55.1714L70.6558 55.8957C71.3204 59.592 74.8525 62.0413 78.5488 61.3767L79.2731 61.2423C79.5121 61.1975 79.6689 60.9735 79.6241 60.7345L79.4897 60.0102C78.8251 56.3213 75.293 53.8646 71.5967 54.5292Z" fill="#482817"/>
<path d="M4.58492 60.0102L4.45051 60.7345C4.40571 60.9735 4.56252 61.1975 4.80147 61.2423L5.52581 61.3767C9.22213 62.0413 12.7542 59.5846 13.4188 55.8957L13.5532 55.1714C13.598 54.9324 13.4412 54.7084 13.2022 54.6636L12.4779 54.5292C8.78156 53.8646 5.24951 56.3213 4.58492 60.0102Z" fill="#482817"/>
<path d="M58.2749 24.7423L57.7373 25.2426C57.5581 25.4069 57.5506 25.6832 57.7149 25.855L58.2152 26.3926C60.769 29.1406 65.0702 29.2974 67.8182 26.7436L68.3558 26.2433C68.5351 26.079 68.5425 25.8027 68.3782 25.6309L67.8779 25.0933C65.3241 22.3528 61.0229 22.1885 58.2749 24.7423Z" fill="#482817"/>
<path d="M73.3738 15.7963L73.6202 15.1018C73.7024 14.8778 73.5829 14.6239 73.3589 14.5418L72.6644 14.2953C69.1324 13.0334 65.2419 14.8703 63.9799 18.4098L63.7335 19.1043C63.6514 19.3283 63.7708 19.5822 63.9949 19.6643L64.6893 19.9108C68.2214 21.1653 72.1118 19.3283 73.3738 15.7963Z" fill="#482817"/>
<path d="M59.761 7.61207V6.8728C59.761 6.63385 59.5668 6.4397 59.3279 6.4397H58.5886C54.8325 6.4397 51.7933 9.4789 51.7933 13.235V13.9742C51.7933 14.2132 51.9875 14.4073 52.2264 14.4073H52.9657C56.7218 14.4073 59.761 11.3607 59.761 7.61207Z" fill="#482817"/>
<path d="M71.4996 33.6505L71.6041 34.3823C71.6414 34.6213 71.858 34.7856 72.097 34.7482L72.8287 34.6437C76.54 34.106 79.1237 30.6636 78.5861 26.9524L78.4815 26.2206C78.4442 25.9816 78.2276 25.8173 77.9887 25.8547L77.2569 25.9592C73.5456 26.4894 70.9694 29.9393 71.4996 33.6505Z" fill="#482817"/>
</svg>
