<svg width="315" height="55" viewBox="0 0 315 55" fill="none" xmlns="http://www.w3.org/2000/svg">
<path d="M32.7168 12.6999L21.7311 47.688H21.4035L8.79078 7.94966C7.03264 2.48959 5.27449 1.76886 0.273071 1.25562H18.8045C14.5129 1.64874 13.1479 3.78909 14.5129 8.40831L23.8824 39.2359L32.3346 12.1212C35.5233 2.04187 32.9898 1.64874 28.5671 1.25562H42.4248C37.0739 1.70334 35.7744 2.93732 32.7168 12.6999Z" fill="#482817"/>
<path fill-rule="evenodd" clip-rule="evenodd" d="M0.000362458 1.24172C0.00779127 1.09655 0.127656 0.982666 0.273009 0.982666H18.8045C18.9504 0.982666 19.0705 1.09743 19.0772 1.2432C19.0839 1.38898 18.9747 1.51422 18.8294 1.52753C16.7128 1.72142 15.4097 2.33936 14.7706 3.38918C14.126 4.44818 14.0978 6.03992 14.7744 8.33002C14.7743 8.32969 14.7745 8.33034 14.7744 8.33002L23.8856 38.308L32.0742 12.0389C32.869 9.52655 33.3022 7.63295 33.4413 6.20017C33.5807 4.76448 33.4215 3.82322 33.0668 3.18945C32.7181 2.56638 32.1569 2.19933 31.3895 1.96274C30.6124 1.72314 29.6546 1.62642 28.5429 1.5276C28.3974 1.51467 28.2879 1.3895 28.2943 1.24357C28.3008 1.09764 28.421 0.982666 28.5671 0.982666H42.4247C42.5711 0.982666 42.6914 1.09806 42.6975 1.24428C42.7036 1.39049 42.5933 1.51552 42.4475 1.52772C39.7867 1.75036 38.2191 2.16394 36.9169 3.66372C35.585 5.19778 34.5098 7.88824 32.9773 12.7816L21.9915 47.7699C21.9558 47.8837 21.8503 47.9611 21.7311 47.9611H21.4035C21.2845 47.9611 21.1793 47.8841 21.1433 47.7707L8.53085 8.03339C8.53079 8.03321 8.53091 8.03357 8.53085 8.03339C7.65585 5.31615 6.79881 3.84245 5.58835 2.96902C4.37061 2.09033 2.75184 1.78448 0.24514 1.52725C0.100546 1.51241 -0.00706635 1.38688 0.000362458 1.24172ZM24.0258 39.4681C23.9835 39.4944 23.9337 39.5091 23.8814 39.5089C23.7615 39.5085 23.656 39.4299 23.6211 39.3153L14.251 8.48573C13.5629 6.15713 13.5348 4.36939 14.3042 3.10528C14.7359 2.3961 15.4002 1.88064 16.2798 1.52867H3.69906C4.5481 1.75679 5.27317 2.06829 5.90784 2.52625C7.26626 3.50645 8.16751 5.12357 9.05058 7.86604L9.05093 7.86712L21.5667 47.3001L24.0258 39.4681ZM32.8431 11.4C33.4878 9.26069 33.856 7.57916 33.9847 6.25293C34.1289 4.76782 33.9762 3.69637 33.5433 2.9228C33.15 2.22007 32.5454 1.79783 31.8111 1.52867H39.2059C38.1519 1.8698 37.2838 2.40832 36.5046 3.30576C35.2075 4.79975 34.1746 7.27193 32.8431 11.4Z" fill="#482817"/>
<path d="M56.457 46.7709H41.4965C44.4231 46.3778 46.3778 45.799 46.3778 40.4591V7.55671C46.3778 2.22769 44.4231 1.638 41.4965 1.24487H56.457C53.596 1.638 51.5757 2.21677 51.5757 7.55671V40.47C51.5867 45.799 53.596 46.3887 56.457 46.7709Z" fill="#482817"/>
<path fill-rule="evenodd" clip-rule="evenodd" d="M41.2242 1.22671C41.2338 1.08333 41.3529 0.971924 41.4966 0.971924H56.4572C56.6007 0.971924 56.7197 1.08309 56.7295 1.2263C56.7393 1.36951 56.6365 1.49585 56.4943 1.51539C55.0557 1.71306 53.9263 1.95047 53.1365 2.73898C52.3521 3.52215 51.8489 4.90918 51.8489 7.55677L51.8489 40.4695C51.8489 40.4697 51.8489 40.4698 51.8489 40.47C51.8543 43.112 52.3574 44.4992 53.1407 45.2825C53.929 46.0707 55.0556 46.3083 56.4933 46.5004C56.6358 46.5194 56.7391 46.6457 56.7296 46.7891C56.72 46.9325 56.6009 47.044 56.4572 47.044H41.4966C41.3529 47.044 41.2338 46.9326 41.2242 46.7892C41.2146 46.6458 41.3178 46.5195 41.4602 46.5004C42.9321 46.3027 44.06 46.065 44.8409 45.2778C45.6172 44.4954 46.1049 43.1089 46.1049 40.4591V7.55677C46.1049 4.91269 45.6173 3.52596 44.8407 2.742C44.0597 1.95349 42.9316 1.71314 41.4602 1.5155C41.3178 1.49637 41.2146 1.3701 41.2242 1.22671ZM43.9351 1.51793C44.4182 1.71398 44.8547 1.98017 45.2287 2.35776C46.1612 3.29919 46.6509 4.87182 46.6509 7.55677V40.4591C46.6509 43.1493 46.1612 44.7222 45.2285 45.6624C44.8558 46.038 44.4211 46.3029 43.9401 46.498H54.032C53.5579 46.3038 53.1266 46.0406 52.7547 45.6686C51.8154 44.7293 51.3084 43.1573 51.3029 40.4706L51.3029 40.4701V7.55677C51.3029 4.8644 51.8097 3.29208 52.7507 2.35259C53.1264 1.97746 53.5627 1.7129 54.0425 1.51793H43.9351Z" fill="#482817"/>
<path d="M89.6979 10.8107V47.6225H89.1083L65.9576 6.58464V37.2156C65.9576 42.5446 67.9123 46.3885 70.7733 46.7707H60.4975C63.4241 46.3776 65.3788 42.5446 65.3788 37.2156V10.0354C65.3788 4.70638 63.8172 2.29303 60.4975 1.25562H69.3428L89.1738 36.1127V10.8107C89.1738 5.48171 87.1536 1.63782 84.2925 1.25562H94.5683C91.7073 1.63782 89.6979 5.48171 89.6979 10.8107Z" fill="#482817"/>
<path fill-rule="evenodd" clip-rule="evenodd" d="M60.2276 1.21448C60.248 1.08116 60.3626 0.982666 60.4975 0.982666H69.3428C69.441 0.982666 69.5316 1.03536 69.5801 1.12067L88.9008 35.0808V10.8108C88.9008 8.17741 88.4012 5.92973 87.5634 4.30318C86.7243 2.67418 85.5666 1.70131 84.2564 1.52627C84.1139 1.50724 84.0106 1.38098 84.0201 1.23756C84.0296 1.09413 84.1488 0.982666 84.2925 0.982666H94.5684C94.7121 0.982666 94.8312 1.09413 94.8408 1.23756C94.8503 1.38098 94.747 1.50724 94.6045 1.52627C93.2944 1.70128 92.1395 2.67391 91.3031 4.30287C90.468 5.92943 89.971 8.17719 89.971 10.8108V47.6226C89.971 47.7733 89.8487 47.8956 89.698 47.8956H89.1083C89.0098 47.8956 88.9189 47.8425 88.8705 47.7567L66.2306 7.62427V37.2157C66.2306 39.8504 66.7143 42.0986 67.5362 43.7252C68.3592 45.3539 69.5005 46.3253 70.8095 46.5002C70.952 46.5192 71.0553 46.6455 71.0458 46.7889C71.0362 46.9323 70.9171 47.0438 70.7734 47.0438H60.4975C60.3538 47.0438 60.2347 46.9324 60.2251 46.789C60.2155 46.6456 60.3187 46.5194 60.4612 46.5002C61.8053 46.3197 62.9625 45.3456 63.7925 43.7201C64.6221 42.0954 65.1058 39.8504 65.1058 37.2157V10.0355C65.1058 7.39183 64.7174 5.51177 63.9465 4.1724C63.1822 2.84467 62.0248 2.01898 60.4161 1.51625C60.2874 1.47602 60.2073 1.34781 60.2276 1.21448ZM61.9038 1.52867C62.9682 2.07281 63.808 2.83737 64.4197 3.90002C65.2594 5.35893 65.6518 7.35006 65.6518 10.0355V37.2157C65.6518 39.91 65.1582 42.246 64.2788 43.9684C63.7055 45.091 62.9602 45.966 62.0721 46.4978H69.2209C68.3492 45.9664 67.615 45.0917 67.0489 43.9714C66.1782 42.2483 65.6846 39.91 65.6846 37.2157V6.5847C65.6846 6.46063 65.7682 6.35216 65.8882 6.32065C66.0082 6.28913 66.1344 6.3425 66.1954 6.45056L89.2677 47.3496H89.425V36.2198C89.3927 36.2955 89.3269 36.3546 89.2436 36.3767C89.1239 36.4084 88.9978 36.3554 88.9365 36.2477L69.1841 1.52867H61.9038ZM89.4359 10.1323C89.5139 7.72277 90.0077 5.6304 90.8174 4.05347C91.3923 2.9337 92.1353 2.0597 93.0115 1.52867H85.8502C86.7274 2.05962 87.472 2.93348 88.0488 4.05316C88.861 5.6301 89.3574 7.72257 89.4359 10.1323Z" fill="#482817"/>
<path d="M153.369 54.2513C145.114 54.2513 135.941 51.4558 130.797 42.2829C127.543 36.4952 125.272 32.8479 122.607 32.8479H118.84V40.4592C118.84 45.7882 120.86 46.3779 123.721 46.771H108.761C111.687 46.3779 113.642 45.7991 113.642 40.4592V7.55682C113.642 2.2278 111.687 1.63811 108.761 1.24498H122.607C143.421 1.17946 144.262 30.3144 125.141 32.6622C130.732 33.372 133.331 36.5607 136.389 41.3765C142.373 50.6804 150.759 53.3449 157.464 53.3449C159.801 53.3449 161.887 53.0173 163.58 52.5696L163.645 52.8317C160.719 53.6726 157.137 54.2513 153.369 54.2513ZM118.84 32.2691H122.607C137.24 32.2691 137.306 1.83467 122.607 1.83467H122.476C119.812 1.83467 118.84 2.48988 118.84 7.29474V32.2691Z" fill="#482817"/>
<path fill-rule="evenodd" clip-rule="evenodd" d="M134.278 5.98738C131.626 3.28483 127.743 1.50187 122.608 1.51804L122.607 1.51804H111.199C111.682 1.71409 112.119 1.98028 112.493 2.35787C113.425 3.2993 113.915 4.87193 113.915 7.55688V40.4592C113.915 43.1494 113.425 44.7223 112.492 45.6625C112.12 46.0381 111.685 46.303 111.204 46.4981H121.312C120.83 46.3022 120.392 46.0362 120.015 45.6592C119.074 44.7184 118.567 43.1464 118.567 40.4592V32.8479C118.567 32.6971 118.689 32.5749 118.84 32.5749H122.607C124.073 32.5749 125.378 33.5778 126.694 35.2245C128.018 36.8801 129.41 39.2588 131.035 42.1491L131.036 42.1494C136.113 51.2042 145.169 53.9784 153.369 53.9784C155.252 53.9784 157.088 53.8327 158.818 53.5817C158.377 53.6054 157.926 53.618 157.464 53.618C150.683 53.618 142.202 50.9193 136.159 41.5242L136.158 41.5229C134.63 39.1168 133.234 37.1461 131.537 35.6867C129.848 34.2346 127.85 33.2815 125.106 32.9331C124.97 32.9158 124.867 32.7994 124.868 32.6617C124.868 32.524 124.971 32.4081 125.107 32.3913C134.499 31.2382 138.992 23.5176 138.577 16.0638C138.369 12.3376 136.933 8.69358 134.278 5.98738ZM126.749 32.6722C135.404 30.8484 139.527 23.2908 139.122 16.0335C138.908 12.1907 137.426 8.41651 134.668 5.60497C131.906 2.78986 127.878 0.955541 122.607 0.972034H108.761C108.617 0.972034 108.498 1.08344 108.488 1.22682C108.479 1.37021 108.582 1.49648 108.724 1.51561C110.196 1.71325 111.324 1.9536 112.105 2.74211C112.881 3.52607 113.369 4.9128 113.369 7.55688V40.4592C113.369 43.109 112.881 44.4955 112.105 45.278C111.324 46.0651 110.196 46.3028 108.724 46.5005C108.582 46.5196 108.479 46.6459 108.488 46.7893C108.498 46.9327 108.617 47.0441 108.761 47.0441H123.721C123.865 47.0441 123.984 46.9329 123.994 46.7897C124.003 46.6465 123.901 46.5202 123.758 46.5006C122.32 46.303 121.191 46.063 120.401 45.2731C119.616 44.4884 119.113 43.1012 119.113 40.4592V33.1209H122.607C123.806 33.1209 124.969 33.9417 126.268 35.5655C127.559 37.1805 128.93 39.5193 130.559 42.4167C135.769 51.7075 145.058 54.5244 153.369 54.5244C157.163 54.5244 160.771 53.9417 163.721 53.0942C163.862 53.0535 163.946 52.9082 163.91 52.7655L163.844 52.5034C163.827 52.4326 163.781 52.3718 163.718 52.3346C163.656 52.2975 163.58 52.2871 163.51 52.3057C161.838 52.7479 159.776 53.072 157.464 53.072C150.836 53.072 142.544 50.4419 136.619 41.2298C135.089 38.8202 133.657 36.7889 131.893 35.2726C130.464 34.0441 128.823 33.1586 126.749 32.6722ZM119.441 2.59864C120.104 1.71867 121.143 1.56172 122.476 1.56172H122.607C126.392 1.56172 129.224 3.52707 131.096 6.44259C132.963 9.35019 133.884 13.2093 133.88 17.0522C133.875 20.8952 132.946 24.7541 131.077 27.6614C129.203 30.5764 126.376 32.5421 122.607 32.5421H118.84C118.689 32.5421 118.567 32.4199 118.567 32.2691V7.29479C118.567 6.08669 118.628 5.12642 118.765 4.36622C118.901 3.6068 119.117 3.02804 119.441 2.59864ZM119.113 31.9961H122.607C126.155 31.9961 128.823 30.1576 130.618 27.3661C132.417 24.567 133.33 20.8172 133.334 17.0516C133.338 13.286 132.434 9.53647 130.636 6.73762C128.844 3.94668 126.172 2.10773 122.607 2.10773H122.476C121.145 2.10773 120.366 2.27839 119.877 2.92724C119.624 3.26224 119.431 3.7482 119.302 4.463C119.173 5.17702 119.113 6.10047 119.113 7.29479V31.9961Z" fill="#482817"/>
<path d="M167.74 47.7539C155.837 47.7539 144 39.815 144 24.0136C144 8.14661 155.903 0.273193 167.74 0.273193C179.643 0.273193 191.481 8.14661 191.481 24.0136C191.481 39.815 179.578 47.7539 167.74 47.7539ZM169.695 46.8366C178.213 46.8366 186.217 40.2081 186.283 27.2568C186.414 10.0249 175.352 1.17956 165.272 1.17956C156.886 1.17956 149.209 7.29484 149.209 19.8421C149.209 37.9913 159.812 46.8366 169.695 46.8366Z" fill="#482817"/>
<path fill-rule="evenodd" clip-rule="evenodd" d="M151.612 6.39732C147.218 10.2947 144.273 16.1541 144.273 24.0134C144.273 31.8402 147.202 37.6997 151.588 41.6052C155.979 45.5152 161.847 47.4808 167.74 47.4808C173.601 47.4808 179.469 45.5153 183.868 41.605C188.263 37.6993 191.208 31.8397 191.208 24.0134C191.208 16.1536 188.279 10.2943 183.893 6.39716C179.502 2.49555 173.634 0.546007 167.74 0.546007C161.88 0.546007 156.012 2.49541 151.612 6.39732ZM151.25 5.98884C155.762 1.9873 161.764 0 167.74 0C173.75 0 179.752 1.98716 184.256 5.98901C188.764 9.99534 191.754 16.0062 191.754 24.0134C191.754 31.9885 188.747 37.9991 184.231 42.0132C179.72 46.0227 173.718 48.0268 167.74 48.0268C161.731 48.0268 155.728 46.0229 151.225 42.013C146.717 37.9987 143.727 31.988 143.727 24.0134C143.727 16.0057 146.733 9.99492 151.25 5.98884ZM153.899 5.61655C156.923 2.46041 161.012 0.906371 165.272 0.906371C175.523 0.906371 186.688 9.89548 186.556 27.2585C186.523 33.7911 184.486 38.7559 181.358 42.0901C178.23 45.4236 174.026 47.1095 169.695 47.1095C159.626 47.1095 148.936 38.1042 148.936 19.8419C148.936 13.5114 150.874 8.77355 153.899 5.61655ZM186.556 27.2585C186.556 27.2586 186.556 27.2587 186.556 27.2587L186.283 27.2567L186.556 27.258C186.556 27.2582 186.556 27.2583 186.556 27.2585ZM154.293 5.99429C151.383 9.03173 149.482 13.6252 149.482 19.8419C149.482 37.8781 159.998 46.5635 169.695 46.5635C173.882 46.5635 177.939 44.935 180.959 41.7165C183.979 38.4987 185.977 33.6737 186.01 27.2553L186.01 27.2546C186.14 10.1538 175.181 1.45238 165.272 1.45238C161.146 1.45238 157.204 2.95597 154.293 5.99429Z" fill="#482817"/>
<path d="M213.266 47.7537C206.245 47.7537 199.289 42.8724 199.343 33.1863V7.55671C199.343 2.22769 197.388 1.638 194.462 1.24487H209.488C206.561 1.638 204.607 2.21677 204.607 7.55671V33.1754C204.607 41.8896 209.936 46.0502 215.341 46.0502C220.932 46.0502 226.589 41.6275 226.589 33.1754V10.8109C226.589 5.48189 224.634 1.638 221.708 1.25579H231.983C229.122 1.64892 227.168 5.48189 227.168 10.8109V33.1863C227.321 42.8724 220.288 47.7537 213.266 47.7537Z" fill="#482817"/>
<path fill-rule="evenodd" clip-rule="evenodd" d="M194.189 1.22671C194.199 1.08333 194.318 0.971924 194.462 0.971924H209.488C209.632 0.971924 209.751 1.08333 209.76 1.22671C209.77 1.3701 209.667 1.49637 209.524 1.5155C208.052 1.71322 206.925 1.95093 206.144 2.73806C205.367 3.52054 204.88 4.90702 204.88 7.55677V33.1754C204.88 37.4756 206.193 40.6231 208.146 42.6934C210.099 44.7648 212.709 45.7772 215.341 45.7772C220.776 45.7772 226.316 41.4828 226.316 33.1754V10.811C226.316 8.17619 225.832 5.92849 225.003 4.30242C224.172 2.67533 223.016 1.70198 221.672 1.52655C221.53 1.50792 221.426 1.38173 221.435 1.23813C221.445 1.09454 221.564 0.982844 221.708 0.982844H231.983C232.127 0.982844 232.246 1.09401 232.256 1.23722C232.266 1.38044 232.163 1.50677 232.021 1.52631C230.711 1.7063 229.569 2.67846 228.746 4.30565C227.924 5.93087 227.441 8.1763 227.441 10.811V33.1841C227.518 38.0981 225.77 41.8154 223.093 44.3024C220.421 46.7855 216.838 48.0268 213.266 48.0268C209.694 48.0268 206.131 46.7853 203.465 44.3021C200.795 41.8152 199.043 38.0986 199.07 33.1855V7.55677C199.07 4.91269 198.583 3.52596 197.806 2.742C197.025 1.95349 195.897 1.71314 194.426 1.5155C194.283 1.49637 194.18 1.3701 194.189 1.22671ZM196.9 1.51793C197.383 1.71398 197.82 1.98017 198.194 2.35776C199.126 3.29919 199.616 4.87182 199.616 7.55677V33.1863L199.616 33.1879C199.589 37.9606 201.287 41.5274 203.837 43.9026C206.391 46.2816 209.817 47.4808 213.266 47.4808C216.716 47.4808 220.161 46.2814 222.722 43.9024C225.278 41.5275 226.97 37.9618 226.895 33.1906L226.895 33.1863H226.895V10.811C226.895 8.1166 227.388 5.78103 228.259 4.05924C228.827 2.93692 229.563 2.06114 230.437 1.52885H223.289C224.174 2.05975 224.917 2.93367 225.489 4.05428C226.368 5.77796 226.862 8.11672 226.862 10.811V33.1754C226.862 41.7724 221.089 46.3232 215.341 46.3232C212.568 46.3232 209.811 45.2554 207.748 43.068C205.685 40.8794 204.334 37.5895 204.334 33.1754V7.55677C204.334 4.86657 204.823 3.29369 205.756 2.35352C206.129 1.97786 206.563 1.71303 207.044 1.51793H196.9Z" fill="#482817"/>
<path d="M258.203 47.6882C245.907 47.6882 234.331 39.7493 234.331 24.4065C234.331 8.80164 246.365 0.404053 258.782 0.404053C264.504 0.404053 270.291 2.16219 275.107 5.7986L273.087 15.1681C273.928 8.14643 268.533 1.1903 260.016 1.1903C249.216 0.862698 240.119 8.40851 240.174 22.3972C240.174 39.3671 250.843 46.5198 259.884 46.5198C266.447 46.5198 272.181 42.6868 272.181 36.0474V31.2971C272.181 25.9681 270.226 25.3129 267.299 24.9853H282.26C279.399 25.3129 277.379 25.9572 277.379 31.2971V47.1641C276.669 45.0128 275.62 44.0409 273.993 44.0409C272.956 44.0409 271.787 44.434 270.291 45.0128C266.469 46.771 262.309 47.6882 258.203 47.6882Z" fill="#482817"/>
<path fill-rule="evenodd" clip-rule="evenodd" d="M242.082 6.75764C237.581 10.7545 234.604 16.6802 234.604 24.4066C234.604 32.0035 237.467 37.7479 241.836 41.5961C246.21 45.4486 252.111 47.4153 258.203 47.4153C262.268 47.4153 266.39 46.5068 270.177 44.7648C270.182 44.7625 270.187 44.7603 270.193 44.7582C271.682 44.182 272.897 43.768 273.993 43.768C274.868 43.768 275.605 44.0318 276.215 44.5953C276.555 44.909 276.849 45.3098 277.105 45.7968V31.2972C277.105 28.6049 277.612 27.0169 278.552 26.0693C278.91 25.7088 279.322 25.4498 279.775 25.2583H269.808C270.263 25.4509 270.676 25.7115 271.032 26.0745C271.964 27.024 272.453 28.6123 272.453 31.2972V36.0474C272.453 39.4543 270.979 42.1498 268.663 43.9873C266.353 45.8203 263.216 46.7928 259.884 46.7928C255.293 46.7928 250.294 44.9774 246.442 41.0125C242.588 37.0446 239.901 30.9421 239.901 22.3978C239.901 22.3976 239.901 22.3974 239.901 22.3973H240.174L239.901 22.3983C239.901 22.3981 239.901 22.398 239.901 22.3978C239.873 15.3426 242.155 9.88492 245.832 6.23153C249.507 2.57993 254.555 0.752576 260.02 0.917353C260.018 0.917353 260.017 0.917353 260.015 0.917353V1.19036L260.024 0.917478C260.022 0.917436 260.021 0.917395 260.02 0.917353C267.602 0.919326 272.771 6.336 273.384 12.4924L272.82 15.1106L273.087 15.1681L273.358 15.2006C273.467 14.2918 273.473 13.3843 273.384 12.4924L274.803 5.91212C274.85 5.94674 274.896 5.98154 274.943 6.01652L275.107 5.79865L274.84 5.74111L274.803 5.91212C270.066 2.38461 264.393 0.67711 258.781 0.67711C252.633 0.67711 246.587 2.7567 242.082 6.75764ZM241.719 6.34938C246.335 2.2503 252.514 0.131104 258.781 0.131104C264.559 0.131104 270.405 1.9062 275.272 5.58078C275.356 5.64483 275.396 5.75229 275.374 5.85619L273.354 15.2257C273.323 15.3682 273.186 15.4615 273.042 15.4374C272.898 15.4133 272.798 15.2805 272.816 15.1357C273.637 8.27489 268.368 1.46336 260.015 1.46336H260.007L260.007 1.46323C254.674 1.30145 249.775 3.08321 246.216 6.61886C242.659 10.1536 240.419 15.4629 240.447 22.3962L240.447 22.3973C240.447 30.8226 243.093 36.7812 246.834 40.632C250.578 44.4859 255.433 46.2468 259.884 46.2468C263.116 46.2468 266.127 45.3029 268.324 43.5596C270.515 41.8207 271.907 39.28 271.907 36.0474V31.2972C271.907 28.653 271.42 27.2492 270.642 26.4569C269.863 25.6622 268.735 25.4208 267.269 25.2566C267.125 25.2405 267.018 25.1148 267.027 24.9701C267.035 24.8255 267.154 24.7123 267.299 24.7123H282.26C282.404 24.7123 282.524 24.8253 282.532 24.9698C282.541 25.1143 282.435 25.2401 282.291 25.2566C280.857 25.4207 279.728 25.6592 278.94 26.4539C278.155 27.2454 277.651 28.6495 277.651 31.2972V47.1641C277.651 47.2982 277.554 47.4124 277.422 47.4337C277.289 47.4549 277.161 47.377 277.119 47.2497C276.772 46.1961 276.351 45.4642 275.845 44.9964C275.346 44.5361 274.746 44.314 273.993 44.314C273.016 44.314 271.896 44.6849 270.398 45.2645C266.543 47.0364 262.346 47.9613 258.203 47.9613C251.998 47.9613 245.963 45.9585 241.475 42.0058C236.983 38.0489 234.058 32.1525 234.058 24.4066C234.058 16.5281 237.099 10.4525 241.719 6.34938Z" fill="#482817"/>
<path d="M312.388 46.7054V46.7709H283.963C286.89 46.3778 288.845 45.799 288.845 40.4591V7.55671C288.845 2.22769 286.89 1.638 283.963 1.24487H311.602L313.491 12.2961C312.781 10.1448 311.602 1.82364 301.588 1.82364H294.043V22.5064H302.56C306.721 22.5064 307.114 18.7935 307.507 16.3911V29.2004C307.114 26.8635 306.732 23.0851 302.56 23.0851H294.043V40.7102C294.043 45.526 294.436 46.1703 300.027 46.1703H302.364C312.377 46.1703 313.546 37.8492 314.267 35.6979L312.388 46.7054Z" fill="#482817"/>
<path fill-rule="evenodd" clip-rule="evenodd" d="M283.691 1.22671C283.7 1.08333 283.82 0.971924 283.963 0.971924H311.602C311.735 0.971924 311.849 1.0678 311.871 1.19893L313.76 12.2501C313.784 12.3909 313.696 12.5265 313.557 12.561C313.419 12.5955 313.277 12.5173 313.232 12.3816C313.157 12.1553 313.079 11.8709 312.989 11.542C312.633 10.2425 312.086 8.24922 310.805 6.40915C309.219 4.13073 306.503 2.0967 301.588 2.0967H294.316V22.2334H302.56C303.558 22.2334 304.312 22.0112 304.89 21.6561C305.469 21.3007 305.89 20.8012 306.207 20.2194C306.789 19.1471 307 17.8305 307.184 16.6821C307.202 16.5686 307.22 16.4568 307.238 16.3471C307.261 16.2067 307.387 16.1075 307.529 16.1191C307.671 16.1306 307.78 16.249 307.78 16.3912V29.2005C307.78 29.3424 307.671 29.4607 307.53 29.4725C307.388 29.4843 307.261 29.3858 307.238 29.2458C307.217 29.1212 307.196 28.9935 307.175 28.8634C306.993 27.7509 306.783 26.4588 306.21 25.396C305.894 24.8096 305.473 24.3042 304.894 23.9439C304.315 23.5842 303.56 23.3582 302.56 23.3582H294.316V40.7103C294.316 41.9162 294.341 42.8377 294.461 43.5498C294.58 44.2581 294.788 44.7245 295.127 45.049C295.468 45.3759 295.979 45.5935 296.777 45.7251C297.576 45.8568 298.63 45.8974 300.027 45.8974H302.364C307.278 45.8974 309.991 43.8634 311.576 41.585C312.848 39.7556 313.396 37.7761 313.755 36.4755C313.849 36.1363 313.93 35.8434 314.008 35.6112C314.053 35.476 314.195 35.3984 314.333 35.4332C314.471 35.4679 314.56 35.6033 314.536 35.7439L312.661 46.7286V46.771C312.661 46.9218 312.539 47.044 312.388 47.044H283.963C283.82 47.044 283.7 46.9326 283.691 46.7892C283.681 46.6458 283.784 46.5195 283.927 46.5004C285.399 46.3027 286.527 46.065 287.308 45.2778C288.084 44.4954 288.572 43.1089 288.572 40.4591V7.55677C288.572 4.91269 288.084 3.52596 287.307 2.742C286.526 1.95349 285.398 1.71314 283.927 1.5155C283.784 1.49637 283.681 1.3701 283.691 1.22671ZM286.402 1.51793C286.885 1.71398 287.321 1.98017 287.695 2.35776C288.628 3.29919 289.118 4.87182 289.118 7.55677V40.4591C289.118 43.1493 288.628 44.7222 287.695 45.6624C287.323 46.038 286.888 46.3029 286.407 46.498H312.147L313.351 39.4404C313.017 40.2427 312.587 41.0869 312.024 41.8968C310.341 44.3168 307.463 46.4434 302.364 46.4434H300.027C298.628 46.4434 297.536 46.4034 296.689 46.2638C295.841 46.1242 295.205 45.8797 294.749 45.4435C294.291 45.005 294.051 44.4073 293.922 43.6404C293.794 42.8772 293.77 41.9123 293.77 40.7103V23.0852C293.77 22.9344 293.892 22.8122 294.043 22.8122H302.56C303.646 22.8122 304.504 23.0585 305.182 23.4802C305.86 23.9015 306.341 24.4867 306.691 25.137C306.92 25.5625 307.095 26.0205 307.234 26.4846V19.1281C307.094 19.5952 306.918 20.0545 306.686 20.48C306.335 21.1267 305.853 21.7056 305.176 22.1214C304.498 22.5375 303.642 22.7794 302.56 22.7794H294.043C293.892 22.7794 293.77 22.6572 293.77 22.5064V1.8237C293.77 1.67292 293.892 1.55069 294.043 1.55069H301.588C306.688 1.55069 309.568 3.67723 311.253 6.0972C311.811 6.899 312.237 7.73418 312.57 8.52912L311.372 1.51793H286.402Z" fill="#482817"/>
</svg>
